<?xml version="1.0" encoding="UTF-8" standalone="no"?> <svg xmlns="http://www.w3.org/2000/svg" viewBox="0 0 32 32"><defs><style>.cls-1{fill:#eaeff0;}.cls-2{fill:#0081bd;}.cls-3{fill:#7b8c8c;}.cls-4{fill:#fac100;}</style></defs><title>Police Station</title><g id="Police_Station" data-name="Police Station"><path class="cls-1" d="M5,10V27a2,2,0,0,0,2,2H25a2,2,0,0,0,2-2V10Z"/><rect class="cls-2" x="4" y="6" width="24" height="4" rx="1"/><path class="cls-3" d="M12,29V24a1,1,0,0,1,1-1h6a1,1,0,0,1,1,1v5Z"/><path class="cls-4" d="M12,4a9.965,9.965,0,0,0,4-1,9.965,9.965,0,0,0,4,1c0,4-1,6-4,7C13,10,12,8,12,4Z"/><path d="M27,5H20.959c.017-.328.041-.645.041-1a1,1,0,0,0-1-1,9.053,9.053,0,0,1-3.555-.895,1,1,0,0,0-.894,0A9.053,9.053,0,0,1,12,3a1,1,0,0,0-1,1c0,.355.024.672.041,1H5A2,2,0,0,0,3,7V9a1.993,1.993,0,0,0,1,1.722V27a3,3,0,0,0,3,3H25a3,3,0,0,0,3-3V10.722A1.993,1.993,0,0,0,29,9V7A2,2,0,0,0,27,5Zm0,2V9H20.028a7.462,7.462,0,0,0,.708-2ZM16,4.1a11.2,11.2,0,0,0,2.98.816c-.132,2.893-.949,4.245-2.98,5.018-2.031-.773-2.848-2.125-2.98-5.018A11.2,11.2,0,0,0,16,4.1ZM5,7h6.264a7.462,7.462,0,0,0,.708,2H5Zm8,21V24h6v4Zm13-1a1,1,0,0,1-1,1H21V24a2,2,0,0,0-2-2H13a2,2,0,0,0-2,2v4H7a1,1,0,0,1-1-1V11h7.75a7.659,7.659,0,0,0,1.934.948.986.986,0,0,0,.632,0A7.659,7.659,0,0,0,18.25,11H26Z"/><path d="M11,18H9a1,1,0,0,0,0,2h2a1,1,0,0,0,0-2Z"/><path d="M17,18H15a1,1,0,0,0,0,2h2a1,1,0,0,0,0-2Z"/><path d="M21,20h2a1,1,0,0,0,0-2H21a1,1,0,0,0,0,2Z"/><path d="M11,14H9a1,1,0,0,0,0,2h2a1,1,0,0,0,0-2Z"/><path d="M17,14H15a1,1,0,0,0,0,2h2a1,1,0,0,0,0-2Z"/><path d="M21,16h2a1,1,0,0,0,0-2H21a1,1,0,0,0,0,2Z"/></g></svg>